<svg xmlns="http://www.w3.org/2000/svg" viewBox="0 0 500 500"><defs><style>.cls-1{fill:#7b4b3d;}.cls-2,.cls-6{fill:#fff;}.cls-3,.cls-4,.cls-5{fill:none;stroke:#7b4b3d;stroke-miterlimit:10;stroke-width:8px;}.cls-3,.cls-4{stroke-linecap:round;}.cls-4{stroke-dasharray:18.51 25.7;}.cls-6{font-size:43.7px;font-family:Montserrat-SemiBold, Montserrat;font-weight:600;}</style></defs><title>Icono Diagnostico de salud Asistencia básica</title><g id="Recursos"><circle class="cls-1" cx="250" cy="250" r="168.68"/><polygon class="cls-2" points="289.29 206.28 210.71 206.28 216.56 187.39 282.1 187.39 289.29 206.28"/><polygon class="cls-2" points="213.7 204.21 286.11 204.21 283.74 197.96 215.63 197.96 213.7 204.21"/><rect class="cls-2" x="232.24" y="179.32" width="35.51" height="12.48" rx="0.81"/><path class="cls-2" d="M288.52,198l2.9,7.64a1.91,1.91,0,0,1-.29,1.88,2.34,2.34,0,0,1-1.84.87H210.71a2.34,2.34,0,0,1-1.8-.82,1.92,1.92,0,0,1-.37-1.82l2.39-7.75H186v46.71h23.37l13.4-27.29a3.22,3.22,0,0,1,3.16-1.7,3.11,3.11,0,0,1,2.79,2.17l9.93,35.69,3.36-9.36,5.92-18.8a3.12,3.12,0,0,1,3-2.09h0a3.14,3.14,0,0,1,3,2.07l6.59,20.4,1.21-3.43a3.16,3.16,0,0,1,3-2h49.29V198Zm5.83,30a19.83,19.83,0,0,1-3.45,4.38,51.72,51.72,0,0,1-6.81,5.67c-.21.15-.38.23-.63.05a43.72,43.72,0,0,1-9.17-8.34,8.9,8.9,0,0,1-2-4.09,6,6,0,0,1,4-6.71,6.14,6.14,0,0,1,7.22,2.57l.21.36c.09-.13.14-.19.18-.26a5.79,5.79,0,0,1,5.78-2.95,5.61,5.61,0,0,1,5.14,3.78A6.44,6.44,0,0,1,294.35,227.93Z"/><rect class="cls-2" x="204.21" y="309.15" width="15.24" height="13.97"/><rect class="cls-2" x="204.21" y="278.57" width="15.24" height="13.97"/><path class="cls-2" d="M267.06,246.12l-3.64,10.32a3.26,3.26,0,0,1-6-.07L251,236.51,248,245.84l0,.1-6.77,18.85a3.15,3.15,0,0,1-3,2h-.11a3.11,3.11,0,0,1-3-2.18l-10.38-37.28-10.52,21.44a3.19,3.19,0,0,1-2.89,1.71H186v90.21h128.1V246.12ZM223.66,325a2,2,0,0,1-2.1,1.94H202.1A2,2,0,0,1,200,325V307.21a2,2,0,0,1,2.1-1.93h19.46a2,2,0,0,1,2.1,1.93Zm0-30.58a2,2,0,0,1-2.1,1.94H202.1a2,2,0,0,1-2.1-1.94V276.64a2,2,0,0,1,2.1-1.94h19.46a2,2,0,0,1,2.1,1.94Zm79.73,26.22H228.6v-3.86h74.79Zm0-9.53H228.6v-3.86h74.79Zm0-20.29H228.6V287h74.79Zm0-9.22H228.6v-3.86h74.79Z"/><path class="cls-3" d="M475,249.91q0,4.53-.18,9"/><path class="cls-4" d="M472.36,284.49C455.73,392.34,362.51,474.91,250,474.91c-116.9,0-213-89.15-223.95-203.17"/><path class="cls-3" d="M25.18,258.91q-.18-4.47-.18-9"/><path class="cls-5" d="M475,250.09c0-124.27-100.74-225-225-225S25,125.82,25,250.09"/><text class="cls-6" transform="matrix(-0.16, -0.99, 0.99, -0.16, 138.6, 286.39)">D</text><text class="cls-6" transform="translate(134.15 254.14) rotate(-88.95)">i</text><text class="cls-6" transform="translate(133.62 244.59) rotate(-80.87)">a</text><text class="cls-6" transform="translate(136.71 221.68) rotate(-68.49)">g</text><text class="cls-6" transform="matrix(0.57, -0.82, 0.82, 0.57, 146.1, 196.78)">n</text><text class="cls-6" transform="matrix(0.73, -0.68, 0.68, 0.73, 160.89, 174.8)">ó</text><text class="cls-6" transform="matrix(0.85, -0.53, 0.53, 0.85, 178.93, 157.94)">s</text><text class="cls-6" transform="matrix(0.92, -0.4, 0.4, 0.92, 195.16, 147.62)">t</text><text class="cls-6" transform="translate(209.4 141.38) rotate(-17.36)">i</text><text class="cls-6" transform="translate(218.28 137.92) rotate(-9.48)">c</text><text class="cls-6" transform="matrix(1, 0.03, -0.03, 1, 239.41, 133.88)">o</text><text class="cls-6" transform="translate(264.1 134.55) rotate(12.46)">s</text><text class="cls-6" transform="matrix(0.94, 0.33, -0.33, 0.94, 283.03, 138.87)"> </text><text class="cls-6" transform="matrix(0.88, 0.48, -0.48, 0.88, 291.7, 140.94)">d</text><text class="cls-6" transform="matrix(0.76, 0.65, -0.65, 0.76, 315.01, 153.26)">e</text><text class="cls-6" transform="translate(332.99 169.08) rotate(48.68)"> </text><text class="cls-6" transform="translate(339.32 175.52) rotate(55.68)">s</text><text class="cls-6" transform="translate(350.49 191) rotate(66.09)">a</text><text class="cls-6" transform="translate(359.69 212.41) rotate(74.23)">l</text><text class="cls-6" transform="matrix(0.12, 0.99, -0.99, 0.12, 363.13, 221.21)">u</text><text class="cls-6" transform="translate(366.67 247.04) rotate(95.87)">d</text></g></svg>